<?xml version="1.0" encoding="UTF-8"?>
<svg viewBox="0 0 200 120" xmlns="http://www.w3.org/2000/svg">
 <defs>
  <filter id="a" x="-.05624" y="-.11095" width="1.1125" height="1.2219">
   <feGaussianBlur stdDeviation="9.67028"/>
  </filter>
 </defs>
 <g transform="matrix(.44565 0 0 .48943 33.221 7.3886)" filter="url(#a)" stroke="#000">
  <path transform="matrix(.98217 -.097884 -.20826 -.9974 -116.1 981.98)" d="m292.91 792.23a33.285 45.063 0 1 1 -66.57 0 33.285 45.063 0 1 1 66.57 0z" stroke-width="4"/>
  <path d="m-40.958 122.33c102.67-6.6598 198.18-15.52 281.68-28.073 46.921 8.6919 58.956 78.149 18.637 89.258-74.949-11.452-187.54 18.443-281.68 28.073 55.923-8.4654 28.97-91.903-18.637-89.258z" stroke-width="3.9636"/>
  <path transform="matrix(.98217 -.097884 .20826 .9974 -381.24 -596.83)" d="m292.91 792.23a33.285 45.063 0 1 1 -66.57 0 33.285 45.063 0 1 1 66.57 0z" stroke-width="4"/>
  <path d="m23.878 123.85c102.67-6.6598 198.18-15.52 281.68-28.073 46.921 8.6919 58.956 78.149 18.637 89.258-74.949-11.452-187.54 18.443-281.68 28.073 55.923-8.4654 28.97-91.903-18.637-89.258z" stroke-width="3.9636"/>
  <path transform="matrix(.98217 -.097884 .20826 .9974 -430.37 -684.72)" d="m292.91 792.23a33.285 45.063 0 1 1 -66.57 0 33.285 45.063 0 1 1 66.57 0z" stroke-width="4"/>
  <path d="m-25.252 35.955c102.67-6.6598 198.18-15.52 281.68-28.073 46.921 8.6919 58.956 78.149 18.637 89.258-74.949-11.452-187.54 18.443-281.68 28.073 55.923-8.4654 28.97-91.903-18.637-89.258z" stroke-width="3.9636"/>
  <path d="m85.581 197.44 223.99-28.183" fill-rule="evenodd"/>
 </g>
 <g transform="matrix(.43771 -.04791 .09281 .48816 -160.57 -291.15)" stroke="#000">
  <path transform="matrix(1 0 0 -1 0 1584.5)" d="m292.91 792.23a33.285 45.063 0 1 1 -66.57 0 33.285 45.063 0 1 1 66.57 0z" fill="#fea" stroke-width="4"/>
  <path d="m253.97 747.48c103.78 3.5082 200.89 4.1549 286.8 0 44.989 13.13 42.527 82.527 0 89.491-72.369-18.584-190.89-0.2435-286.8 0 57.541-2.8404 48.034-87.429 0-89.491z" fill="#502d16" stroke-width="3.9636"/>
  <path transform="matrix(1 0 0 -1 62.474 1438)" d="m217.12 643.72a23.044 32.773 0 1 1 -46.087 0 23.044 32.773 0 1 1 46.087 0z" fill="none" stroke-width="4"/>
  <path transform="matrix(.56687 0 0 -.6642 146.54 1226.4)" d="m217.12 643.72a23.044 32.773 0 1 1 -46.087 0 23.044 32.773 0 1 1 46.087 0z" fill="none" stroke-width="4"/>
  <path transform="matrix(.40562 0 0 -.44145 177.83 1083.6)" d="m217.12 643.72a23.044 32.773 0 1 1 -46.087 0 23.044 32.773 0 1 1 46.087 0z" fill="none" stroke-width="4"/>
  <path transform="translate(64.351 7.8362)" d="m292.91 792.23a33.285 45.063 0 1 1 -66.57 0 33.285 45.063 0 1 1 66.57 0z" fill="#fea" stroke-width="4"/>
  <path d="m318.32 755.32c103.78 3.5082 200.89 4.1549 286.8 0 44.989 13.13 42.527 82.527 0 89.491-72.369-18.584-190.89-0.2435-286.8 0 57.541-2.8404 48.034-87.429 0-89.491z" fill="#502d16" stroke-width="3.9636"/>
  <path transform="translate(126.82 154.29)" d="m217.12 643.72a23.044 32.773 0 1 1 -46.087 0 23.044 32.773 0 1 1 46.087 0z" fill="none" stroke-width="4"/>
  <path transform="matrix(.56687 0 0 .6642 210.89 365.84)" d="m217.12 643.72a23.044 32.773 0 1 1 -46.087 0 23.044 32.773 0 1 1 46.087 0z" fill="none" stroke-width="4"/>
  <path transform="matrix(.40562 0 0 .44145 242.18 508.72)" d="m217.12 643.72a23.044 32.773 0 1 1 -46.087 0 23.044 32.773 0 1 1 46.087 0z" fill="none" stroke-width="4"/>
  <path d="m324.39 802.89 31.146 16.457-3.6417 5.2253-27.505-21.682z" stroke-width="4"/>
  <path d="m407.3 820.85-52.629 3.8518 0.00486-5.7189 52.624 1.8671z" stroke-width="4.6502"/>
  <g transform="translate(33.653 -83.299)">
   <path d="m292.91 792.23a33.285 45.063 0 1 1 -66.57 0 33.285 45.063 0 1 1 66.57 0z" fill="#fea" stroke-width="4"/>
   <path d="m253.97 747.48c103.78 3.5082 200.89 4.1549 286.8 0 44.989 13.13 42.527 82.527 0 89.491-72.369-18.584-190.89-0.2435-286.8 0 57.541-2.8404 48.034-87.429 0-89.491z" fill="#502d16" stroke-width="3.9636"/>
   <path transform="translate(62.474 146.45)" d="m217.12 643.72a23.044 32.773 0 1 1 -46.087 0 23.044 32.773 0 1 1 46.087 0z" fill="none" stroke-width="4"/>
   <path transform="matrix(.56687 0 0 .6642 146.54 358.01)" d="m217.12 643.72a23.044 32.773 0 1 1 -46.087 0 23.044 32.773 0 1 1 46.087 0z" fill="none" stroke-width="4"/>
   <path transform="matrix(.40562 0 0 .44145 177.83 500.88)" d="m217.12 643.72a23.044 32.773 0 1 1 -46.087 0 23.044 32.773 0 1 1 46.087 0z" fill="none" stroke-width="4"/>
   <path d="m258.09 788.13 24.483-25.327 4.0036 4.9534-28.487 20.374z" stroke-width="4"/>
   <path d="m337.19 766.01-52.629 3.8518 0.00487-5.7189 52.624 1.8671z" stroke-width="4.6502"/>
  </g>
  <path d="m331.92 741.54c78.147-11.165 153.6-8.8804 229.28-7.6745" fill="none"/>
  <path d="m343.44 718.52c81.272-7.3639 159.51-7.6474 233.11 2.878" fill="none"/>
  <path d="m343.44 695.5c84.632 6.6078 161.72 5.674 238.87 4.7966" fill="none"/>
  <path d="m385.65 683.98c84.256 13.465 128.46 5.3637 181.31 1.9186" fill="none"/>
  <path d="m364.54 833.64 229.28-5.7559" fill="none"/>
  <path d="m369.34 804.86c76.836 1.8238 155.68 15.683 230.24 3.8373" fill="none"/>
  <path d="m371.26 787.59c74.038 3.1118 149.83 18.527 221.6 5.7559" fill="none"/>
  <path d="m366.46 770.32c91.467 7.93 166.49 6.7224 235.03 1.9186" fill="none"/>
 </g>
</svg>
